<?xml version="1.0" encoding="UTF-8"?>
<svg id="Calque_1" xmlns="http://www.w3.org/2000/svg" version="1.1" viewBox="0 0 255 255">
  <!-- Generator: Adobe Illustrator 29.2.1, SVG Export Plug-In . SVG Version: 2.1.0 Build 116)  -->
  <defs>
    <style>
      .st0 {
        fill: #f7f6f2;
      }

      .st0, .st1, .st2, .st3, .st4 {
        stroke-miterlimit: 10;
      }

      .st0, .st1, .st2, .st4 {
        stroke: #1d1d1b;
      }

      .st5 {
        isolation: isolate;
      }

      .st1 {
        display: none;
        fill: #fff;
      }

      .st2 {
        fill: #b8ddd1;
      }

      .st3 {
        fill: none;
        stroke: #000;
      }

      .st6, .st4 {
        fill: #f7b186;
      }

      .st7 {
        fill: #333;
      }
    </style>
  </defs>
  <rect class="st1" x="-7.9" y="-678.2" width="300.8" height="300.8"/>
  <path class="st1" d="M-53.5-478.4"/>
  <path class="st1" d="M-22.5-478.4"/>
  <path class="st2" d="M42.9,161.3c14.2-10.4,81.9-12.7,93.9,4.6,50.8,73.6-152.3,49.5-93.9-4.6h0Z"/>
  <path class="st4" d="M128.3,122.5c-16-18-55-22.1-75.2-8.4-18.9,12.6-6.2,37.2,13.4,35.3,15-1.5,27.2,2.6,49.7-.5,14.1-2,23.2-14.4,12.2-26.2h-.1v-.2Z"/>
  <path class="st0" d="M108.6,87c8.6,15.9-5.1,17.4-24.1,15-24.3-3-30.9-15-23.4-23.6,10.5-12,25.9-19.9,47.4,8.5h0Z"/>
  <path class="st3" d="M-144.9-614.2"/>
  <g class="st5">
    <g class="st5">
      <g class="st5">
        <path class="st7" d="M146.6,142.7l5.8,5.1c.5.5.9.7,1.2.7s.6-.4.6-1.3,0-1.7-.2-2-.4-.6-.7-.8c-.3-.1-.5-.3-.6-.5s-.2-.4-.2-.7c0-.7.4-1.1,1.3-1.3.4,0,1-.1,1.9-.1s2,0,2.4.2c.7.2,1.1.6,1.1,1.2s-.3.9-.9,1.1c-.2.1-.4.2-.5.3s-.2.2-.2.4c-.2.5-.3,1.5-.3,2.9v6.2c0,1.4,0,2.4-.2,3-.2.8-.6,1.1-1.1,1.1s-.5,0-.6-.2-.5-.3-.9-.7l-6.9-6.2c-.5-.4-.9-.7-1.2-.7-.5,0-.7.7-.7,2s0,1.8.2,2.2.4.7.7.9c.5.3.8.6.8,1,0,1.1-1.2,1.6-3.5,1.6s-1.9,0-2.5-.4-.9-.7-.9-1.2,0-.5.2-.6.4-.3.7-.5c.4-.2.6-.6.7-1.2.1-1,.2-2.5.2-4.3s-.1-3.5-.4-4.4c0-.3-.2-.6-.3-.8s-.4-.3-.7-.5c-.4-.2-.6-.3-.7-.5s-.2-.4-.2-.6c0-.8.6-1.2,1.9-1.4h2.3q1.1,0,1.4.1c.3.1.6.3,1,.7v.2Z"/>
        <path class="st7" d="M166,147.1v6.4c0,1.4.4,2,1.3,2s.4,0,.7-.2.4-.3.5-.5c.2-.4.3-1.2.3-2.5s0-2.2,0-2.6c0-.2,0-.3-.2-.4s-.2-.2-.4-.3c-.4-.2-.7-.5-.7-.9s.4-.8,1.1-1c1.5-.4,2.9-.5,4.3-.5s1.2.4,1.2,1.3,0,.3,0,.5v6.6c0,.3.2.5.7.7.4.2.6.5.6.8,0,.7-.8,1.2-2.5,1.6-1,.2-1.9.3-2.8.3s-.6,0-.8,0-.2-.3-.2-.5c0-.5-.2-.7-.4-.7h-.3c0,0-.3.2-.7.5-.8.5-1.6.8-2.5.8-1.5,0-2.6-.4-3.2-1.3-.5-.7-.8-1.9-.8-3.7s0-1.2,0-1.6v-.5c0-.7,0-1.2-.2-1.5s-.3-.6-.7-.7c-.3-.2-.5-.3-.6-.4s0-.2,0-.4c0-.6.4-1,1.3-1.2,1.5-.3,3.1-.5,4.6-.5s.7.2.7.6h0Z"/>
        <path class="st7" d="M182.8,149.5v4c0,.5,0,.9.3,1.1s.5.4.9.4.7-.1,1.2-.4c0,0,.2-.1.4-.1s.4.1.5.3.2.5.2.7c0,.5-.3.9-.8,1.4-1.1.9-2.5,1.4-4,1.4s-2.3-.4-3-1.1-1.1-1.6-1.1-2.8v-5.7h-1.5c-.2,0-.4,0-.4-.1v-1c0-.2,0-.4.3-.5l5.4-3.4c0,0,.3-.1.5-.1h.9c.2,0,.3,0,.4.1s0,.3,0,.5v1.6c0,.2,0,.4,0,.5s.2.1.5.1h2.2c.3,0,.5,0,.6.2s0,.3,0,.7v.7c0,.4,0,.6-.2.8s-.3.2-.6.2h-2.1c-.2,0-.4,0-.4.1s0,.2,0,.4h-.3Z"/>
        <path class="st7" d="M192.4,146.5c.4,0,.7,0,.8.2s.2.5.2,1.1.2.5.4.5.3-.1.4-.3c.6-1,1.4-1.5,2.4-1.5s1.3.2,1.7.7c.2.2.4.5.5.9s.2.7.2,1,0,.7-.3,1.1-.4.7-.7,1c-.5.5-1.1.7-1.8.7s-.7,0-1-.2-.6-.4-1.1-.9c-.2-.2-.3-.2-.5-.2s-.4.1-.4.4v1.6c0,1.2,0,2,0,2.4,0,.2,0,.4.2.5s.3.2.6.3c.7.2,1.1.6,1.1,1.1s0,.6-.3.8-.5.4-.9.5c-.8.2-1.9.2-3.3.2s-2.4,0-3.2-.4c-.6-.2-1-.6-1-1.1s.2-.8.7-1.1c.2-.1.4-.3.5-.4s0-.3.2-.5c0-.7.2-2,.2-3.9s0-.6,0-.8-.2-.3-.5-.4c-.6-.2-.8-.5-.8-.9s.2-.7.6-1,1-.5,1.9-.8c1.2-.4,2.2-.5,3.1-.6h.1Z"/>
        <path class="st7" d="M206.4,147.2v6.8c0,.5,0,.9,0,1.2s.3.5.6.7c.2.2.4.3.5.4s0,.3,0,.5c0,1-1.3,1.5-3.8,1.5s-2.5,0-3.3-.3c-.3,0-.5-.2-.7-.4s-.3-.4-.3-.7,0-.4,0-.5.3-.3.7-.6c.2-.2.4-.5.5-.9s.2-1,.2-1.8v-2.6c0-.3-.3-.6-.7-.7-.5-.2-.7-.5-.7-.9s.3-.9.9-1.1c.9-.3,1.8-.6,2.8-.9s1.8-.4,2.3-.4.6.2.6.7h.1ZM204.1,142.1c.7,0,1.2.1,1.6.4s.6.6.6,1-.3,1.1-.9,1.4c-1,.6-2.1.8-3.5.8s-1-.1-1.4-.3c-.5-.3-.7-.7-.7-1.2s.5-1.2,1.4-1.6c1-.4,1.9-.6,2.7-.6h.2Z"/>
      </g>
    </g>
  </g>
  <g class="st5">
    <g class="st5">
      <g class="st5">
        <path class="st6" d="M162.6,168.7c-.5,0-.9.1-1,.4,0,.2-.2.6-.3,1.2s0,1.1,0,1.6,0,.5.3.6.5.2,1.1.2.6,0,.8-.2.3-.3.3-.6c.2-.9.5-1.3,1.1-1.3,1,0,1.4,1.1,1.4,3.4s-.2,2.5-.6,3.2c-.2.4-.6.6-1,.6s-.7-.3-.8-.9c0-.4,0-.7,0-.8s-.2-.3-.3-.5c-.3-.2-.6-.4-1.1-.4s-.6,0-.7.2-.2.4-.2.7v1.1c0,1.4,0,2.2.4,2.5,0,.1.2.2.3.2s.4,0,.8.1c.2,0,.4.1.5.3s.2.4.2.6c0,.6-.4,1-1.1,1.2-1,.2-2.4.4-4.3.4s-2.7,0-3.3-.3c-.3,0-.5-.2-.7-.5s-.3-.5-.3-.8,0-.6.4-.8c0,0,.3-.1.6-.3.4-.2.7-.6.8-1.2,0-1,.2-3.2.2-6.6s0-2.4-.2-2.9-.3-.7-.7-.9-.6-.3-.8-.5-.2-.3-.2-.6.2-.6.5-.9.8-.3,1.2-.3h1.4c1.3.1,2.8.2,4.6.2,2.8,0,4.7,0,5.7-.2h.3c.3,0,.5.2.8.5.7.9,1,1.8,1,2.9s0,.9-.3,1.2-.5.4-.9.4-.5,0-.6-.2-.5-.5-1.1-1.1c-.4-.4-.8-.7-1.3-.8s-1.4-.2-2.8-.2h0Z"/>
        <path class="st6" d="M175.8,170.6c1.4,0,2.7.4,3.8,1.1.8.5,1.4,1.2,1.9,2.1s.7,1.8.7,2.8c0,1.7-.8,3.1-2.3,4.3-1.5,1.1-3.2,1.7-5.1,1.7s-3.4-.5-4.5-1.6c-1.1-1-1.7-2.4-1.7-4s.7-3.4,2.1-4.5c1.4-1.2,3.2-1.9,5.2-1.9h0ZM174.9,173.3c-.3,0-.6.1-.8.4s-.3.6-.3,1,0,1.1.3,1.9.4,1.5.6,2.2c.2.6.6,1,1.2,1s1-.4,1-1.3,0-1.4-.3-2.2-.4-1.5-.6-2c-.3-.5-.6-.8-1.1-.8v-.2Z"/>
        <path class="st6" d="M188.5,170.7c.4,0,.7,0,.8.2s.2.5.2,1.1.2.5.4.5.3-.1.4-.3c.6-1,1.4-1.5,2.4-1.5s1.3.2,1.7.7c.2.2.4.5.5.9s.2.7.2,1,0,.7-.3,1.1-.4.7-.7,1c-.5.5-1.1.7-1.8.7s-.7,0-1-.2-.6-.4-1.1-.9c-.2-.2-.3-.2-.5-.2s-.4.1-.4.4v1.6c0,1.2,0,2,0,2.4,0,.2,0,.4.2.5s.3.2.6.3c.7.2,1.1.6,1.1,1.1s0,.6-.3.8-.5.4-.9.5c-.8.2-1.9.2-3.3.2s-2.4,0-3.2-.4c-.6-.2-1-.6-1-1.1s.2-.8.7-1.1c.2-.1.4-.3.5-.4s0-.3.2-.5c0-.7.2-2,.2-3.9s0-.6,0-.8-.2-.3-.5-.4c-.6-.2-.8-.5-.8-.9s.2-.7.6-1,1-.5,1.9-.8c1.2-.4,2.2-.5,3.1-.6h.1Z"/>
        <path class="st6" d="M201.6,170.7c.4,0,.7.3.7.9v.5c0,.4.1.6.4.6s.3-.2.6-.5c.4-.5,1-.9,1.6-1.2s1.3-.4,2-.4c1.3,0,2.2.5,2.7,1.4.2.4.4.5.5.5s.3-.2.6-.5c1-1,2.2-1.5,3.5-1.5s1.8.3,2.5.8c.7.6,1,1.4,1,2.6v4.9c0,.5.2.9.5,1.3.2.2.3.4.3.5v.3c0,1-1.2,1.5-3.5,1.5s-1.9,0-2.5-.4-1-.6-1-1,0-.3,0-.4.2-.3.5-.7c.2-.3.4-1.4.4-3.2s0-1.8-.2-2.2c-.2-.5-.5-.7-1-.7s-.5,0-.7.2-.3.4-.4.6c0,.3-.1,1-.1,2.2s0,2.1.1,2.4.3.7.6,1.2c0,.1.1.3.1.4,0,.9-1.2,1.4-3.6,1.4s-2.4,0-3-.3c-.4-.2-.6-.5-.6-.9s0-.3,0-.4.2-.3.5-.5c.2-.2.3-.3.3-.5s0-.4.1-.8v-2.6c0-1.5-.4-2.3-1.2-2.3s-.9.3-1,1c0,.6-.1,1.5-.1,2.6v1.7c0,.3.1.5.3.8s.3.6.3.8c0,.5-.4.9-1.1,1.1-.8.2-1.6.3-2.6.3s-2.1,0-2.6-.3-.8-.5-.8-.9,0-.3.1-.4.2-.3.5-.5c.4-.3.6-.8.6-1.3,0-1,.1-2,.1-3s0-1.3-.1-1.6-.2-.5-.5-.7c-.2-.2-.4-.3-.5-.4s0-.2,0-.4c0-.5.4-.9,1.2-1.2,2-.7,3.5-1.1,4.4-1.1v.3Z"/>
      </g>
    </g>
  </g>
</svg>